<svg width="32" height="32" viewBox="0 0 32 32" fill="none" xmlns="http://www.w3.org/2000/svg">
<path fill-rule="evenodd" clip-rule="evenodd" d="M1.29095 17.9854C1.28343 17.7052 1.35835 17.429 1.50641 17.191C1.65447 16.953 1.86915 16.7637 2.12381 16.6466L22.4006 7.33884C22.6057 7.24446 22.8333 7.21016 23.0571 7.23992C23.2808 7.26967 23.4916 7.36225 23.6648 7.50693C23.8381 7.6516 23.9668 7.84244 24.036 8.0573C24.1052 8.27216 24.1121 8.50223 24.0558 8.72083L18.5153 30.333C18.4504 30.5859 18.3175 30.8162 18.1311 30.999C17.9447 31.1818 17.7118 31.3101 17.4577 31.3701C17.2036 31.43 16.9379 31.4193 16.6894 31.3391C16.441 31.2589 16.2192 31.1123 16.0481 30.9151L9.97107 23.9072L1.99133 19.1781C1.78331 19.0547 1.60997 18.8806 1.48749 18.672C1.36501 18.4634 1.29739 18.2272 1.29095 17.9854ZM11.5041 23.2901L17.0638 29.7019L22.3496 9.08209L3.00386 17.9622L10.3047 22.2887L15.2198 16.4021C15.3526 16.2431 15.5432 16.1433 15.7495 16.1247C15.9559 16.1062 16.1612 16.1704 16.3202 16.3032C16.4793 16.436 16.5791 16.6265 16.5976 16.8329C16.6162 17.0392 16.552 17.2445 16.4192 17.4036L11.5041 23.2901Z" fill="#3E8CE2"/>
</svg>
