<svg width="25" height="25" viewBox="0 0 25 25" fill="none" xmlns="http://www.w3.org/2000/svg">
<path d="M23.3472 12.1736C21.007 7.84723 16.9028 5.22917 12.3611 5.22917C7.81946 5.22917 3.70835 7.84723 1.3889 12.1736L1.19446 12.5L1.37501 12.8333C3.71529 17.1597 7.81946 19.7778 12.3611 19.7778C16.9028 19.7778 21.0139 17.1944 23.3472 12.8333L23.5278 12.5L23.3472 12.1736ZM12.3611 18.3542C8.4514 18.3542 4.86113 16.1736 2.77779 12.5C4.86113 8.82639 8.4514 6.64584 12.3611 6.64584C16.2708 6.64584 19.8195 8.83334 21.9375 12.5C19.8195 16.1736 16.2639 18.3542 12.3611 18.3542Z" fill="#3E8CE2"/>
<path d="M12.5625 7.75693C11.6209 7.7638 10.7025 8.04956 9.92321 8.5781C9.14393 9.10664 8.53876 9.85427 8.18414 10.7265C7.82952 11.5988 7.74134 12.5566 7.93076 13.479C8.12017 14.4014 8.57867 15.2469 9.24836 15.9088C9.91804 16.5708 10.7689 17.0194 11.6934 17.198C12.6179 17.3767 13.5746 17.2774 14.4427 16.9126C15.3108 16.5479 16.0513 15.934 16.5707 15.1487C17.0902 14.3633 17.3652 13.4416 17.3611 12.5C17.3584 11.8732 17.232 11.2531 16.9892 10.6753C16.7464 10.0974 16.392 9.57318 15.9462 9.13256C15.5004 8.69194 14.972 8.34363 14.3914 8.10757C13.8108 7.87151 13.1893 7.75236 12.5625 7.75693ZM12.5625 15.8958C11.8974 15.889 11.2492 15.6857 10.6992 15.3117C10.1492 14.9376 9.72201 14.4093 9.47128 13.7933C9.22054 13.1772 9.15743 12.5008 9.28987 11.849C9.42231 11.1972 9.74439 10.599 10.2157 10.1296C10.687 9.66029 11.2864 9.34065 11.9388 9.21087C12.5911 9.08109 13.2673 9.14696 13.8823 9.40021C14.4974 9.65346 15.0238 10.0828 15.3957 10.6343C15.7675 11.1858 15.9681 11.8349 15.9722 12.5C15.9741 12.9476 15.887 13.3912 15.7162 13.8049C15.5453 14.2187 15.294 14.5944 14.9768 14.9103C14.6596 15.2261 14.2829 15.4759 13.8685 15.6451C13.454 15.8143 13.0101 15.8995 12.5625 15.8958Z" fill="#3E8CE2"/>
</svg>
