<svg width="25" height="25" viewBox="0 0 25 25" fill="none" xmlns="http://www.w3.org/2000/svg">
<path d="M12.5 15.625C14.2259 15.625 15.625 14.2259 15.625 12.5C15.625 10.7741 14.2259 9.375 12.5 9.375C10.7741 9.375 9.375 10.7741 9.375 12.5C9.375 14.2259 10.7741 15.625 12.5 15.625Z" fill="#3E8CE2"/>
<path d="M13.5416 4.23854V2.08334H11.4583V4.23854C9.62516 4.47225 7.9215 5.30806 6.61477 6.61479C5.30804 7.92152 4.47222 9.62518 4.23852 11.4583H2.08331V13.5417H4.23852C4.47205 15.3749 5.30781 17.0786 6.61457 18.3854C7.92133 19.6922 9.62509 20.5279 11.4583 20.7615V22.9167H13.5416V20.7615C15.3749 20.5279 17.0786 19.6922 18.3854 18.3854C19.6921 17.0786 20.5279 15.3749 20.7614 13.5417H22.9166V11.4583H20.7614C20.5277 9.62518 19.6919 7.92152 18.3852 6.61479C17.0785 5.30806 15.3748 4.47225 13.5416 4.23854ZM12.5 18.75C9.05311 18.75 6.24998 15.9469 6.24998 12.5C6.24998 9.05313 9.05311 6.25 12.5 6.25C15.9469 6.25 18.75 9.05313 18.75 12.5C18.75 15.9469 15.9469 18.75 12.5 18.75Z" fill="#3E8CE2"/>
</svg>
