<svg width="23" height="23" viewBox="0 0 23 23" fill="none" xmlns="http://www.w3.org/2000/svg">
<path d="M21.9545 10.12H19.733V3.68C19.733 1.64738 17.8609 0 15.5511 0H7.44886C5.13906 0 3.26705 1.64738 3.26705 3.68V10.12H1.04545C0.467187 10.12 0 10.5311 0 11.04V22.08C0 22.5889 0.467187 23 1.04545 23H21.9545C22.5328 23 23 22.5889 23 22.08V11.04C23 10.5311 22.5328 10.12 21.9545 10.12ZM12.4148 16.9338V18.4575C12.4148 18.584 12.2972 18.6875 12.1534 18.6875H10.8466C10.7028 18.6875 10.5852 18.584 10.5852 18.4575V16.9338C10.3155 16.7634 10.1142 16.5221 10.0103 16.2446C9.9064 15.9671 9.9052 15.6678 10.0069 15.3897C10.1086 15.1116 10.308 14.869 10.5763 14.697C10.8446 14.5249 11.168 14.4322 11.5 14.4322C11.832 14.4322 12.1554 14.5249 12.4237 14.697C12.692 14.869 12.8914 15.1116 12.9931 15.3897C13.0948 15.6678 13.0936 15.9671 12.9897 16.2446C12.8857 16.5221 12.6845 16.7634 12.4148 16.9338ZM17.3807 10.12H5.61932V3.68C5.61932 2.79163 6.43935 2.07 7.44886 2.07H15.5511C16.5607 2.07 17.3807 2.79163 17.3807 3.68V10.12Z" fill="#3E8CE2"/>
</svg>
